<svg width="136" height="155" viewBox="0 0 136 155" fill="none" xmlns="http://www.w3.org/2000/svg">
<path d="M135.353 54.714H103.185C102.598 50.5523 101.398 46.8557 99.5868 43.6243C97.7753 40.3439 95.4496 37.5531 92.6099 35.252C89.7701 32.9508 86.4897 31.1882 82.7687 29.9642C79.0966 28.7402 75.1063 28.1281 70.7977 28.1281C63.0129 28.1281 56.2318 30.0621 50.4544 33.93C44.677 37.749 40.197 43.3305 37.0146 50.6747C33.8321 57.9699 32.2409 66.8319 32.2409 77.2606C32.2409 87.983 33.8321 96.9919 37.0146 104.287C40.246 111.582 44.7504 117.09 50.5278 120.811C56.3052 124.532 62.9884 126.393 70.5774 126.393C74.837 126.393 78.7784 125.83 82.4015 124.704C86.0736 123.578 89.3295 121.938 92.1692 119.783C95.009 117.58 97.3591 114.912 99.2196 111.778C101.129 108.645 102.451 105.07 103.185 101.056L135.353 101.203C134.521 108.106 132.44 114.765 129.11 121.179C125.83 127.544 121.399 133.248 115.817 138.291C110.285 143.285 103.675 147.25 95.9882 150.188C88.3503 153.077 79.7086 154.521 70.0633 154.521C56.648 154.521 44.6525 151.486 34.0769 145.414C23.5503 139.343 15.2269 130.555 9.10676 119.049C3.03559 107.543 0 93.6136 0 77.2606C0 60.8586 3.08455 46.9047 9.25364 35.3989C15.4227 23.893 23.7951 15.129 34.3707 9.10677C44.9463 3.03559 56.8438 0 70.0633 0C78.7784 0 86.8569 1.22403 94.299 3.67208C101.79 6.12014 108.424 9.69429 114.202 14.3946C119.979 19.0459 124.679 24.7498 128.302 31.5064C131.975 38.2631 134.325 45.9989 135.353 54.714Z" fill="#EEDBBA"/>
</svg>
