<svg width="211" height="82" viewBox="0 0 211 82" fill="none" xmlns="http://www.w3.org/2000/svg">
<path d="M133.742 0H153.023L171.588 35.0631H172.383L190.948 0H210.229L180.533 52.6344V81.4163H163.438V52.6344L133.742 0Z" fill="#EEDBBA"/>
<path d="M77.1178 81.4163H58.6719L86.778 0H108.961L137.027 81.4163H118.581L98.1874 18.6049H97.5514L77.1178 81.4163ZM75.9649 49.4143H119.535V62.8512H75.9649V49.4143Z" fill="#EEDBBA"/>
<path d="M0 81.4163V0H32.1213C38.2964 0 43.5572 1.17937 47.9037 3.53811C52.2501 5.87035 55.5629 9.11693 57.8422 13.2779C60.1479 17.4123 61.3008 22.1828 61.3008 27.5893C61.3008 32.9959 60.1347 37.7664 57.8024 41.9008C55.4702 46.0352 52.0911 49.2553 47.6651 51.561C43.2657 53.8668 37.9386 55.0196 31.684 55.0196H11.2106V41.225H28.9012C32.2141 41.225 34.9438 40.6552 37.0906 39.5156C39.2638 38.3494 40.8804 36.746 41.9405 34.7053C43.0272 32.6381 43.5705 30.2661 43.5705 27.5893C43.5705 24.886 43.0272 22.5273 41.9405 20.5131C40.8804 18.4724 39.2638 16.8955 37.0906 15.7824C34.9173 14.6428 32.161 14.0729 28.8217 14.0729H17.2135V81.4163H0Z" fill="#EEDBBA"/>
</svg>
