<svg width="119" height="151" viewBox="0 0 119 151" fill="none" xmlns="http://www.w3.org/2000/svg">
<path d="M0 150.408V0H59.3408C70.6998 0 80.3941 2.03188 88.4237 6.09565C96.5023 10.1105 102.647 15.8144 106.858 23.2076C111.117 30.5517 113.247 39.1933 113.247 49.1324C113.247 59.1205 111.093 67.7132 106.784 74.9104C102.476 82.0587 96.233 87.5424 88.0565 91.3614C79.9289 95.1803 70.0878 97.0898 58.533 97.0898H18.8011V71.5321H53.392C59.4632 71.5321 64.5062 70.6998 68.521 69.0351C72.5358 67.3704 75.5224 64.8734 77.4809 61.5441C79.4883 58.2147 80.492 54.0775 80.492 49.1324C80.492 44.1384 79.4883 39.9278 77.4809 36.5005C75.5224 33.0732 72.5114 30.4783 68.4476 28.7157C64.4328 26.9041 59.3653 25.9983 53.2452 25.9983H31.8002V150.408H0ZM81.2264 81.9608L118.608 150.408H83.5031L46.9292 81.9608H81.2264Z" fill="#EEDBBA"/>
</svg>
