<svg width="48" height="47" viewBox="0 0 48 47" fill="none" xmlns="http://www.w3.org/2000/svg">
<path d="M3 38.1875C3 38.577 3.15804 38.9506 3.43934 39.2261C3.72064 39.5015 4.10218 39.6562 4.5 39.6562H43.5C43.8978 39.6562 44.2794 39.5015 44.5607 39.2261C44.842 38.9506 45 38.577 45 38.1875V20.3789H3V38.1875ZM9.1875 25.5195C9.1875 25.3248 9.26652 25.138 9.40717 25.0002C9.54782 24.8625 9.73859 24.7852 9.9375 24.7852H18.5625C18.7614 24.7852 18.9522 24.8625 19.0928 25.0002C19.2335 25.138 19.3125 25.3248 19.3125 25.5195V31.3945C19.3125 31.5893 19.2335 31.7761 19.0928 31.9138C18.9522 32.0515 18.7614 32.1289 18.5625 32.1289H9.9375C9.73859 32.1289 9.54782 32.0515 9.40717 31.9138C9.26652 31.7761 9.1875 31.5893 9.1875 31.3945V25.5195ZM43.5 7.34375H4.5C4.10218 7.34375 3.72064 7.49849 3.43934 7.77394C3.15804 8.04938 3 8.42296 3 8.8125V14.8711H45V8.8125C45 8.42296 44.842 8.04938 44.5607 7.77394C44.2794 7.49849 43.8978 7.34375 43.5 7.34375Z" fill="#002C41"/>
</svg>
