<svg width="48" height="48" viewBox="0 0 48 48" fill="none" xmlns="http://www.w3.org/2000/svg">
<g clip-path="url(#clip0_4_143)">
<path d="M33.3025 12.6543C31.0162 12.6543 29.1562 14.5144 29.1562 16.8007C29.1562 19.087 31.0162 20.947 33.3025 20.947H35.1823C35.9595 20.947 36.5896 21.5771 36.5896 22.3543V22.9168C36.5896 27.8167 40.5759 31.803 45.4758 31.803H46.1976C47.3596 29.0618 48.0026 26.0471 48.0026 22.8823C48.0026 19.2056 47.1338 15.7323 45.5923 12.6543H33.3025Z" fill="#002C41"/>
<path d="M8.36161 15.0547C13.0155 15.0547 16.8018 11.2685 16.8018 6.61456V1.57031C10.6994 3.95513 5.87209 8.88472 3.625 15.0547H8.36161Z" fill="#002C41"/>
<path d="M3.22338 31.8126C2.69695 31.8126 2.27026 32.2393 2.27026 32.7657V33.1308H1.4073C0.630096 33.1308 0 33.7609 0 34.5381C0 35.3153 0.630096 35.9454 1.4073 35.9454H2.27026V36.2349C2.27026 36.7613 2.69695 37.188 3.22338 37.188H7.22566V31.8125H3.22338V31.8126Z" fill="#002C41"/>
<path d="M25.8078 34.5379C25.8078 33.3334 24.828 32.3535 23.6234 32.3535H22.7344V36.7223H23.6234C24.828 36.7223 25.8078 35.7424 25.8078 34.5379Z" fill="#002C41"/>
<path d="M10.0391 31.0541V37.9499L15.8167 42.9456C15.9411 43.0532 16.1001 43.1124 16.2647 43.1124H19.4433C19.7053 43.1124 19.9176 42.9001 19.9176 42.6381V26.361C19.9176 26.099 19.7053 25.8867 19.4433 25.8867H16.336C16.1727 25.8867 16.0149 25.945 15.8909 26.0511L10.0391 31.0541Z" fill="#002C41"/>
<path d="M33.8015 23.7616H33.2989C29.4607 23.7616 26.3381 20.639 26.3381 16.8007C26.3381 12.9624 29.4607 9.8397 33.2989 9.8397H43.9168C39.7852 3.89807 32.9096 0.0078125 25.1244 0.0078125C23.206 0.0078125 21.3432 0.245365 19.5625 0.690167C19.5967 0.811758 19.6163 0.939635 19.6163 1.0722V6.61397C19.6163 12.8198 14.5675 17.8687 8.36154 17.8687H3.16381C3.04231 17.8687 2.92504 17.8517 2.81255 17.8228C2.44505 19.4505 2.25 21.1435 2.25 22.8823C2.25 24.9848 2.54516 27.052 3.08059 28.9982H8.11235L14.6493 23.4096C14.9041 23.1917 15.2284 23.0719 15.5637 23.0719H21.3251C22.1023 23.0719 22.7324 23.702 22.7324 24.4792V29.5394H23.6214C26.3779 29.5394 28.6204 31.7819 28.6204 34.5384C28.6204 37.2949 26.3779 39.5374 23.6214 39.5374H22.7324V44.5196C22.7324 44.9125 22.571 45.2674 22.3114 45.5227C23.2957 45.6673 24.2645 45.7568 25.1245 45.7568C33.4762 45.7568 40.7814 41.2802 44.7745 34.5962C38.926 34.2505 34.2192 29.5906 33.8015 23.7616Z" fill="#002C41"/>
<path d="M3.54688 40.0215L5.69705 47.6344C5.75634 47.8444 5.94792 47.9894 6.16615 47.9894H9.15207C9.47528 47.9894 9.70898 47.6806 9.62117 47.3695L7.54624 40.0215H3.54688Z" fill="#002C41"/>
</g>
<defs>
<clipPath id="clip0_4_143">
<rect width="48" height="48" fill="white"/>
</clipPath>
</defs>
</svg>
