<svg width="48" height="48" viewBox="0 0 48 48" fill="none" xmlns="http://www.w3.org/2000/svg">
<g clip-path="url(#clip0_4_156)">
<path d="M47.9988 32.4851C47.9988 26.5287 44.5817 21.2128 39.4639 18.627C39.3049 30.0476 30.0457 39.3069 18.625 39.4658C21.2108 44.5836 26.5267 48.0007 32.4832 48.0007C35.2759 48.0007 37.9917 47.257 40.3779 45.8438L47.931 47.933L45.8418 40.3799C47.255 37.9937 47.9988 35.2778 47.9988 32.4851Z" fill="#002C41"/>
<path d="M36.6563 18.3281C36.6563 8.2218 28.4345 0 18.3281 0C8.2218 0 0 8.2218 0 18.3281C0 21.6218 0.876709 24.8287 2.5415 27.6442L0.0673828 36.5885L9.01209 34.1147C11.8275 35.7795 15.0344 36.6563 18.3281 36.6563C28.4345 36.6563 36.6563 28.4345 36.6563 18.3281ZM15.5156 14.0625H12.7031C12.7031 10.9607 15.2263 8.4375 18.3281 8.4375C21.4299 8.4375 23.9531 10.9607 23.9531 14.0625C23.9531 15.6368 23.2866 17.15 22.1239 18.2135L19.7344 20.4005V22.5938H16.9219V19.162L20.2251 16.1386C20.8154 15.5984 21.1406 14.8612 21.1406 14.0625C21.1406 12.5116 19.879 11.25 18.3281 11.25C16.7772 11.25 15.5156 12.5116 15.5156 14.0625ZM16.9219 25.4063H19.7344V28.2188H16.9219V25.4063Z" fill="#002C41"/>
</g>
<defs>
<clipPath id="clip0_4_156">
<rect width="48" height="48" fill="white"/>
</clipPath>
</defs>
</svg>
