<svg width="290" height="67" viewBox="0 0 290 67" fill="none" xmlns="http://www.w3.org/2000/svg">
<path d="M18.4824 25.584C20.7812 25.584 22.912 25.9071 24.875 26.5527C26.8511 27.1985 28.6019 28.141 30.126 29.3809C31.65 30.6078 32.89 32.1132 33.8457 33.8955C34.8142 35.6778 35.4339 37.7188 35.7051 40.0176H27.2197C27.0647 38.9198 26.7484 37.9442 26.2705 37.0918C25.7926 36.2265 25.1788 35.4898 24.4297 34.8828C23.6807 34.2759 22.8154 33.8111 21.834 33.4883C20.8653 33.1654 19.8124 33.0039 18.6758 33.0039C16.6224 33.0039 14.8335 33.514 13.3096 34.5342C11.7857 35.5415 10.6041 37.0141 9.76465 38.9512C8.92513 40.8756 8.50488 43.2138 8.50488 45.9648C8.50489 48.7932 8.9252 51.1694 9.76465 53.0938C10.6171 55.0182 11.8051 56.4715 13.3291 57.4531C14.8531 58.4347 16.6163 58.9258 18.6182 58.9258C19.7417 58.9258 20.7816 58.7775 21.7373 58.4805C22.7059 58.1834 23.5644 57.7499 24.3135 57.1816C25.0625 56.6005 25.6831 55.8969 26.1738 55.0703C26.6774 54.2438 27.026 53.301 27.2197 52.2422L35.7051 52.2803C35.4855 54.1013 34.9368 55.858 34.0586 57.5498C33.1932 59.2288 32.0241 60.7341 30.5518 62.0645C29.0924 63.3817 27.3488 64.4273 25.3213 65.2021C23.3065 65.9641 21.0267 66.3457 18.4824 66.3457C14.9436 66.3457 11.779 65.5449 8.98926 63.9434C6.21241 62.3418 4.01679 60.0234 2.40234 56.9883C0.800815 53.9531 5.58283e-06 50.2786 0 45.9648C0 41.6381 0.814041 37.957 2.44141 34.9219C4.06871 31.8869 6.27683 29.5749 9.06641 27.9863C11.8562 26.3848 14.9952 25.584 18.4824 25.584ZM70.7666 33.043H52.4199V42.4971H69.3906V49.4141H52.4199V58.8877H70.8438V65.8037H44.0312V26.127H70.7666V33.043ZM105.426 51.0801H105.774V26.127H114.124V65.8037H106.879L89.6172 40.8311H89.3262V65.8037H80.9375V26.127H88.2998L105.426 51.0801ZM153.242 33.043H141.095V65.8037H132.804V33.043H120.656V26.127H153.242V33.043ZM179.536 26.127C182.532 26.127 185.09 26.6634 187.208 27.7354C189.339 28.7944 190.961 30.2988 192.071 32.249C193.195 34.1863 193.757 36.4661 193.757 39.0879C193.757 41.7226 193.188 43.9892 192.052 45.8877C190.915 47.7734 189.268 49.2201 187.111 50.2275C186.993 50.2832 186.872 50.3361 186.751 50.3887L195.171 65.8037H185.91L178.395 51.7383H172.271V65.8037H163.883V26.127H179.536ZM243.497 65.8037H234.508L231.57 56.7559H217.245L214.302 65.8037H205.312L219.01 26.127H229.82L243.497 65.8037ZM219.375 50.208H229.444L224.569 35.1934H224.26L219.375 50.208ZM172.271 44.9971H177.967C179.568 44.9971 180.899 44.777 181.958 44.3379C183.017 43.8988 183.805 43.2403 184.321 42.3623C184.851 41.4841 185.116 40.3923 185.116 39.0879C185.116 37.7705 184.851 36.6599 184.321 35.7559C183.805 34.8518 183.01 34.1671 181.938 33.7021C180.879 33.2244 179.543 32.9854 177.929 32.9854H172.271V44.9971ZM242.192 0C243.821 3.22907e-05 245.209 0.311406 246.355 0.933594C247.502 1.54882 248.376 2.40536 248.978 3.50293C249.586 4.59347 249.89 5.85229 249.89 7.27832C249.89 8.70418 249.582 9.9623 248.967 11.0527C248.352 12.1433 247.46 12.9933 246.293 13.6016C245.133 14.2098 243.727 14.5136 242.077 14.5137H238.26V21.4775H233.719V0H242.192ZM269.865 21.4775H264.999L263.409 16.5801H255.654L254.062 21.4775H249.195L256.609 0H262.461L269.865 21.4775ZM278.983 9.24902H279.193L284.091 0H289.177L281.343 13.8848V21.4775H276.834V13.8848L269 0H274.086L278.983 9.24902ZM256.808 13.0352H262.258L259.619 4.9082H259.451L256.808 13.0352ZM238.26 10.875H241.343C242.217 10.875 242.937 10.7244 243.503 10.4238C244.076 10.1163 244.503 9.69347 244.782 9.15527C245.069 8.61007 245.212 7.98425 245.212 7.27832C245.212 6.56521 245.069 5.94247 244.782 5.41113C244.503 4.87287 244.076 4.45669 243.503 4.16309C242.93 3.86251 242.202 3.71191 241.321 3.71191H238.26V10.875Z" fill="#EEDBBA"/>
</svg>
